<?xml version="1.0" encoding="UTF-8"?>
<svg xmlns="http://www.w3.org/2000/svg" viewBox="0 0 682.17 755.03">
  <defs>
    <style>
      .cls-1 {
        fill: #c49a6b;
        font-family: DomusTitlingLight, 'Domus Titling';
      }

      .cls-2 {
        font-size: 85.15px;
      }

      .cls-3 {
        font-size: 51.09px;
      }

      .cls-4 {
        fill: #c59c6e;
        stroke-width: 0px;
      }
    </style>
  </defs>
  <g id="Layer_1_Image" data-name="Layer 1 Image">
    <path class="cls-4" d="m109.38,243.54v-25.17c0-1.7-.09-3.41.03-5.1.11-1.61.41-3.22.66-4.82.25-1.6-.61-3.35.65-4.84.17-.2-.01-.66.03-1,.18-1.5-.26-2.98.58-4.53.61-1.13.16-2.69.67-4.12.67-1.9.49-4.09.81-6.13.38-2.43.8-4.89,1.48-7.21.71-2.44,1.15-4.94,1.82-7.38.95-3.46,2-6.9,2.94-10.36.63-2.32,1.15-4.74,2.17-6.91,1.04-2.21,1.64-4.54,2.48-6.79,1.06-2.84,2.19-5.66,3.4-8.45,2.87-6.65,6.17-13.09,9.53-19.51,1.96-3.75,4.17-7.35,6.35-10.98,2.48-4.12,5.1-8.12,7.92-12.01,1.64-2.26,3.2-4.58,4.88-6.81,2.28-3.04,4.58-6.06,6.98-9,1.82-2.23,3.74-4.4,5.76-6.45,5.56-5.65,11.07-11.37,16.86-16.79,3.42-3.2,7.01-6.24,10.82-9.03,2.27-1.66,4.48-3.46,6.69-5.23,4.04-3.22,8.32-6.08,12.67-8.82,3.76-2.37,7.66-4.5,11.44-6.84,5.83-3.61,12.09-6.38,18.21-9.41,5.52-2.73,11.43-4.66,17.19-6.89,2.25-.87,4.51-1.75,6.84-2.34,4.5-1.14,8.89-2.67,13.36-3.89,3.36-.92,6.95-1,10.12-2.62,3.19.2,6.11-1.42,9.29-1.4,1.15,0,2.3-.48,3.46-.62,1.07-.13,2.22.22,3.12-.69.06-.06.22,0,.33,0,3.08-.23,6.16-.42,9.23-.69,1.5-.14,2.98-.52,4.48-.64,1.46-.11,2.95-.02,4.42-.02h26.53c1.47,0,2.95-.09,4.42.02,1.61.12,3.22.41,4.82.66,1.6.25,3.35-.61,4.84.65.2.17.67.08,1,.01,2.14-.45,4.1.6,6.18.72,1.95.11,3.99.12,5.82.72,3.55,1.16,7.39,1,10.8,2.66,5.34.48,10.26,2.62,15.4,3.82,4.76,1.11,9.17,3.12,13.8,4.52,3.99,1.21,7.82,3,11.62,4.75,6.19,2.86,12.42,5.68,18.4,8.93,5.95,3.24,11.84,6.64,17.41,10.52,4.67,3.25,9.39,6.45,13.92,9.89,3.33,2.53,6.32,5.49,9.58,8.12,7.21,5.83,13.32,12.79,19.85,19.3,3.56,3.55,6.6,7.6,9.76,11.54,2.66,3.31,5.19,6.73,7.8,10.09,2.28,2.94,4.15,6.2,6.2,9.31,2.45,3.71,4.57,7.63,6.86,11.43,3.54,5.88,6.42,12.09,9.36,18.24,2.7,5.65,5.12,11.48,6.93,17.53.54,1.8,1.45,3.49,2,5.29,1.2,3.93,2.3,7.89,3.42,11.85.81,2.86,1.58,5.72,2.16,8.65.48,2.46,1.11,4.95,1.72,7.41.43,1.74.68,3.61.85,5.44.36,3.79,1.72,7.46,1.39,11.34,1.2,1.59.34,3.47.71,5.15.86,3.97.1,8.06.78,11.94.89,5.16.13,10.28.6,15.38.22,2.38-.8,4.54-.74,6.86.06,2.38.43,4.86-.1,7.11-.54,2.32-.21,4.64-.63,6.87-.6,3.2-.72,6.47-1.35,9.64-.78,3.9-1.02,7.93-2.09,11.72-1.38,4.88-2.12,9.89-3.79,14.73-1.36,3.95-2.24,8.13-3.62,12.12-1.47,4.26-3.14,8.45-4.74,12.66-3.02,7.97-6.98,15.49-10.89,23.03-1.95,3.76-4.16,7.36-6.34,10.99-2.48,4.12-5.19,8.07-7.89,12.04-1.57,2.32-3.34,4.48-4.92,6.79-2.15,3.14-4.8,5.88-7.01,8.99-1.66,2.34-3.71,4.42-5.73,6.47-5.57,5.66-11.08,11.37-16.87,16.8-3.42,3.2-7.02,6.24-10.83,9.03-2.27,1.67-4.48,3.46-6.7,5.23-4.04,3.22-8.35,6.03-12.67,8.83-3.73,2.41-7.62,4.57-11.44,6.85-5.89,3.51-12.21,6.16-18.21,9.43-2.65,1.44-5.65,2.22-8.41,3.48-2.77,1.26-5.65,2.29-8.5,3.27-2.97,1.03-5.87,2.3-8.96,3.03-3.9.92-7.67,2.29-11.58,3.23-4.14.99-8.28,1.98-12.47,2.77-1.96.37-3.93,1.01-5.92,1.21-1.95.2-3.88.65-5.82.89-2.07.26-4.34-.05-6.14.68-2.06.83-4.02.01-5.89.57-3.62,1.07-7.38.05-10.93.74-5.03.99-10.03.47-15.04.53-4.78.05-9.53-1-14.34-.62-2.21-.98-4.6-.36-6.84-.77-1.73-.31-3.47-.38-5.16-.68-1.73-.3-3.53-.26-5.15-.69-2.99-.79-6.09-.91-9.08-1.81-1.66-.5-3.59-.69-5.36-1.08-1.76-.39-3.56-.65-5.31-1.1-2.77-.7-5.48-1.59-8.26-2.26-3.36-.81-6.62-2.04-9.88-3.2-4.44-1.58-8.87-3.22-13.27-4.92-7.85-3.02-15.25-7-22.74-10.76-3.68-1.84-7.09-4.23-10.66-6.29-4.17-2.4-8.08-5.19-12.05-7.89-2.41-1.64-4.63-3.5-7.04-5.12-3.06-2.06-5.71-4.65-8.74-6.78-2.26-1.58-4.26-3.55-6.23-5.49-5.81-5.73-11.71-11.39-17.27-17.35-3.12-3.34-6.1-6.83-8.8-10.58-1.64-2.28-3.45-4.49-5.24-6.68-3.27-4.01-6.02-8.37-8.84-12.68-2.48-3.8-4.67-7.79-6.94-11.72-1.75-3.02-3.29-6.13-4.86-9.23-1.57-3.09-3.12-6.19-4.56-9.33-2.58-5.62-4.97-11.32-6.86-17.23-.66-2.08-1.71-4.07-2.26-6.2-1.16-4.5-2.65-8.89-3.89-13.37-.93-3.36-1.19-6.87-2.55-10.15-.68-1.65-.5-3.64-.77-5.46-.16-1.05-.45-2.08-.67-3.12-.2-.94.07-1.85-.47-2.88-.73-1.37-.39-3.13-.76-4.75-.68-2.98-.55-6.13-.82-9.21-.15-1.61-.53-3.21-.64-4.82-.11-1.58-.02-3.17-.02-4.75Zm113.71-33.44c39.22,39.22,78.36,78.36,117.49,117.49,39.37-39.37,78.89-78.89,118.46-118.46-.09-.48-.08-1.06-.31-1.53-1.47-3.02-1.97-6.44-3.83-9.3-.94-5-3.83-9.34-4.81-14.33-3.06-5.88-4.35-12.48-7.43-18.34-1.75-7.5-5.19-14.41-7.63-21.67-1.66-4.93-3.66-9.81-5.59-14.67-1.43-3.6-2.75-7.25-4.1-10.88-1.27-3.44-2.48-6.91-3.77-10.34-.92-2.45-1.88-4.89-2.73-7.37-.95-2.77-2.01-5.52-3.13-8.22-1.77-4.26-3.38-8.59-4.91-12.92-1.64-4.65-3.3-9.32-5.09-13.89-1.99-5.07-3.86-10.2-5.77-15.28-1.73-4.6-3.37-9.28-5.05-13.9-1.78-4.9-3.62-9.83-5.61-14.67-.72-1.74-1.33-3.53-2.04-5.44-.44,0-1.04.14-1.54-.02-4.39-1.48-9.05-1.53-13.52-2.62-1.53-.37-3.2-.38-4.81-.7-1.69-.34-3.52.22-5.15-.75-3.24.38-6.38-.6-9.58-.65-6.69-.1-13.38-.11-20.06,0-3.08.05-6.18-.49-9.27.57-1.32.45-2.93-.01-4.39.1-1.5.12-3,.66-4.48.6-2.46-.1-4.73,1.26-7.2.73-1.25,1.04-2.82.32-4.12.74-2.36.77-4.79,1.06-7.31,1.49-.42.67-1.1,1.33-1.31,2.12-1.24,4.58-3.32,8.85-4.79,13.32-1.54,4.69-3.34,9.3-5.02,13.92-1.79,4.9-3.61,9.83-5.61,14.67-1.52,3.68-2.94,7.41-4.24,11.16-1.17,3.37-2.49,6.69-3.63,10.07-1.44,4.27-3.13,8.45-4.73,12.66-1.89,5-3.8,9.99-5.68,14.99-.85,2.26-1.65,4.53-2.48,6.79-1.01,2.75-2.03,5.51-3.05,8.26-1.24,3.34-2.54,6.66-3.74,10.01-.99,2.76-2.03,5.51-3.05,8.26-1.72,4.62-3.51,9.2-5.14,13.85-1.11,3.16-2.48,6.23-3.68,9.36-.86,2.25-1.59,4.55-2.42,6.82-1.26,3.44-2.49,6.9-3.85,10.31-1.72,4.28-3.19,8.64-4.94,12.92-2.02,4.95-3.67,10.04-5.37,14.77Zm62.78,80.52c-6.75,6.08-12.84,12.71-19.47,18.83-12.77,11.79-24.52,24.64-37.24,36.52-10.92,10.21-21.23,21.08-31.8,31.66-.64.64-1.17,1.56-1.94,1.87-2,.8-3.01,2.6-4.49,3.92-1.49,1.33-2.85,2.81-4.5,4.47,1.57,1.2,3,2.05,4.11,3.19,3.81,3.9,8.06,7.28,12.17,10.83,2.49,2.15,5.51,3.63,7.64,6.22,4.62,2.45,8.61,5.85,13.11,8.53,5.81,3.47,11.59,6.93,17.61,10.04,4.76,2.46,9.61,4.71,14.51,6.85,4.5,1.97,9.19,3.53,13.82,5.2,3.26,1.17,6.52,2.6,9.84,3.26,4.29.84,8.28,3.03,12.78,2.89,2.35,1.45,5.12,1.34,7.68,1.94,2.59.61,5.31.75,7.92,1.41,1.16.29,2.59-.15,3.6.34,1.14.56,2.2.38,3.25.33,1.26-.06,2.35.72,3.46.67,4.7-.2,9.29,1.2,14,.77,1.8-.17,3.62-.03,5.44-.03,4.19,0,8.39.09,12.58-.03,4.1-.11,8.2-.43,12.3-.65.34-.02.81.14,1-.03,1.15-1.06,2.54-.49,3.82-.67,1.27-.17,2.53-.5,3.8-.66,2.17-.27,4.47-.11,6.48-.81,1.54-.53,3.09-.17,4.48-.67,1.83-.67,3.75-.79,5.6-1.25,1.85-.46,3.7-.93,5.56-1.36,3.08-.71,6.11-1.62,9.12-2.6,2.4-.78,4.87-1.38,7.26-2.18,3.18-1.06,6.35-2.18,9.47-3.4,4.09-1.6,8.22-3.15,12.18-5.05,5.68-2.72,11.28-5.63,16.82-8.65,3.62-1.98,7.08-4.28,10.59-6.46,3.1-1.92,6.05-4.07,9.06-6.13,2.92-1.99,5.9-3.99,8.56-6.23,4.06-3.42,8.45-6.49,12.04-10.46.43-.48.99-.85,1.53-1.21,1.83-1.24,5.15-4.71,6.14-6.46-32.53-32.53-65.06-65.06-97.6-97.59-.06-.06-.21-.02-.32-.03-.11,0-.23,0-1.03,0-18.54,18.54-37.42,37.42-56.46,56.46.07,0-.25.1-.37-.01-18.02-17.83-36.03-35.68-54.08-53.57Zm-4.31-271.16c-1.42.43-2.33.7-3.24.98-2.52.78-5.15,1.39-7.52,2.37-3.2,1.31-6.5,2.39-9.71,3.63-5.78,2.22-11.35,4.9-17.04,7.3-3.21,1.35-6.06,3.43-9.16,4.98-3.59,1.79-7.16,3.69-10.45,5.91-6.78,4.57-13.64,9.03-20.01,14.24-3.28,2.68-6.7,5.29-9.79,8.14-4.14,3.82-8.41,7.54-12.1,11.86-2.61,3.05-5.81,5.55-8.19,8.85-1.55,2.15-3.5,3.99-5.24,6-1.07,1.24-2.17,2.48-3.12,3.81-2.61,3.67-5.19,7.35-7.69,11.09-2.6,3.88-5.05,7.86-7.51,11.83-1.62,2.62-2.55,5.62-4.64,7.97-.52.58-.6,1.56-.81,2.17,2.19,2.53,4.12,4.96,6.25,7.2,8.71,9.15,18.02,17.69,26.49,27.09,8.3,9.21,17.82,17.26,25.94,26.67,2.51,2.91,5.41,5.49,8.15,8.19.44.43,1,.75,1.7,1.26.49-2.01,1.04-3.78,1.74-5.34,2.14-4.8,3.66-9.82,5.65-14.67,1.55-3.78,3.03-7.6,4.35-11.45,1.12-3.28,2.49-6.46,3.53-9.77.79-2.49,1.86-4.9,2.71-7.38.95-2.77,2.01-5.51,3.13-8.22,1.77-4.26,3.38-8.59,4.91-12.92,1.64-4.65,3.33-9.3,5.07-13.89,1.93-5.08,3.83-10.2,5.77-15.28,1.75-4.59,3.36-9.29,5.07-13.89,1.64-4.39,3.47-8.78,5.13-13.16,2.49-6.56,4.94-13.15,7.23-19.79,1.29-3.76,2.88-7.42,4.29-11.14,1-2.65,1.93-5.32,2.91-7.98.9-2.46,1.8-4.92,2.72-7.37,1.09-2.92,2.2-5.83,3.5-9.27Zm-72.88,194.13c-2.6-2.96-4.83-5.76-7.33-8.29-10.31-10.43-20.8-20.69-30.76-31.47-5.65-6.11-11.94-11.59-17.38-17.94-4.17-4.87-9.02-9.16-13.7-13.84-.82,2.1-1.48,4.1-2.36,5.99-1.54,3.34-2.7,6.82-3.95,10.27-1.94,5.35-3.7,10.75-4.97,16.31-.82,3.62-1.96,7.15-2.66,10.82-.26,1.37-.19,2.83-.7,4.1-1.17,2.93-1.1,6.08-1.81,9.09-.36,1.54-.36,3.2-.71,4.81-.34,1.57.28,3.31-.74,4.81.46,3.58-.71,7.05-.68,10.6.02,3.17,0,6.35,0,9.52,0,4.08-.09,8.16.02,12.24.11,4.1.43,8.2.65,12.3.01.23-.09.52.02.67.89,1.28.84,2.77.61,4.14-.25,1.53.63,2.74.75,4.15.18,2.06.12,4.23.77,6.14.49,1.43.2,2.88.64,4.15,1.21,3.53,1.64,7.23,2.56,10.82.87,3.38,1.76,6.75,2.82,10.07.9,2.8,1.89,5.57,2.7,8.4,2.1,7.28,5.12,14.2,8.22,21.08,1.98,4.4,4.27,8.67,6.56,12.92,2.3,4.27,4.74,8.47,7.22,12.65.77,1.3,1.84,2.42,2.9,3.79,2.41-6.35,4.77-12.51,7.09-18.69,1.51-4.02,2.95-8.07,4.41-12.11.89-2.46,1.67-4.97,2.67-7.4,1.87-4.56,3.57-9.18,5.2-13.83,1.1-3.16,2.47-6.23,3.67-9.36.86-2.25,1.6-4.55,2.44-6.81,1.34-3.64,2.72-7.26,4.07-10.89.92-2.45,1.81-4.92,2.72-7.37,1.13-3.05,2.26-6.09,3.4-9.13,1.58-4.22,3.18-8.43,4.76-12.65,1.69-4.52,3.27-9.08,5.07-13.54,2-4.96,3.25-10.2,5.79-14.95.24-.44.03-1.12.03-1.56ZM401.92,20.25c.04.83-.13,1.53.12,2.03,1.5,3.01,2.66,6.2,3.69,9.34,2.2,6.68,5.06,13.11,7.18,19.82,1.19,3.77,2.81,7.44,4.22,11.16.93,2.45,1.67,4.97,2.67,7.39,1.88,4.56,3.58,9.17,5.2,13.82,1.1,3.16,2.46,6.23,3.66,9.36.86,2.25,1.62,4.54,2.44,6.81,1.26,3.44,2.45,6.92,3.83,10.31,1.75,4.27,3.37,8.59,4.91,12.92,1.64,4.64,3.34,9.29,5.07,13.89,1.65,4.39,3.47,8.78,5.1,13.17,1.96,5.3,3.8,10.68,5.72,16,1.77,4.91,3.67,9.8,5.59,14.67,1.42,3.6,2.74,7.25,4.09,10.88.94,2.52,1.88,5.04,2.83,7.59,2.28-1.59,63.48-62.58,67.69-67.44-.16-.43-.28-.96-.53-1.41-.61-1.11-1.35-2.15-1.9-3.3-2.27-4.78-5.12-9.23-7.9-13.72-1.97-3.18-4.09-6.28-6.32-9.27-2.34-3.13-4.64-6.29-7.08-9.35-2.93-3.68-5.99-7.24-9.03-10.82-1.75-2.07-4.05-3.69-5.66-5.85-1.13-1.53-2.23-3.14-3.74-4.15-1.98-1.33-3.48-3.08-5.19-4.64-2.55-2.32-5.1-4.65-7.65-6.97-.17-.15-.31-.44-.48-.46-1.26-.14-1.75-1.28-2.6-1.94-.94-.73-1.89-1.44-2.84-2.17-2.49-1.89-4.93-3.82-7.53-5.58-4.6-3.1-9.15-6.25-13.88-9.15-4.06-2.49-8.24-4.75-12.38-7.07-5.22-2.92-10.81-5.07-16.24-7.55-4.59-2.1-9.39-3.59-14.09-5.37-2.84-1.08-5.78-1.9-8.98-2.94Zm122.64,329.98c1.31-2.3,2.22-4.21,3.42-5.92,2.44-3.48,4.46-7.22,6.46-10.94,4.04-7.47,7.43-15.26,10.56-23.15.85-2.14,1.67-4.3,2.4-6.48,1.84-5.49,3.64-10.98,5.09-16.6,1-3.88,2.02-7.77,2.99-11.66.95-3.83,1.2-7.84,2.07-11.72.37-1.67.16-3.43.65-5.17.46-1.63-.19-3.51.77-5.13-.52-3.8.89-7.48.7-11.28-.12-2.37-.02-4.76-.02-7.14,0-3.63.06-7.25-.02-10.88-.08-3.54.39-7.09-.61-10.61-.57-2,.39-4.15-.51-6.26-.8-1.89.35-4.18-.9-6.09.5-2.25-.61-4.32-.75-6.51-.11-1.71-.26-3.58-.77-5.11-.55-1.64-.4-3.36-1.14-4.96-.74-1.61-1.07-3.43-1.41-5.19-.99-5.2-2.54-10.26-4.12-15.3-2.19-7.01-4.98-13.79-7.65-20.36-22.78,22.78-45.6,45.6-68.61,68.61,1.23,3.43,2.38,7.15,3.88,10.72,1.79,4.25,3.26,8.62,4.94,12.91,1.02,2.61,1.97,5.32,2.94,7.97.96,2.64,1.81,5.35,3.08,7.9,1.01,2.05,1.5,4.36,2.28,6.53.99,2.76,2.04,5.5,3.06,8.25,1.24,3.34,2.52,6.67,3.72,10.02.99,2.76,2.04,5.51,3.06,8.25,1.72,4.61,3.51,9.2,5.13,13.85,1.1,3.16,2.49,6.22,3.69,9.35.86,2.25,1.56,4.57,2.42,6.82,1.28,3.33,2.37,6.74,3.69,10.03,1.75,4.37,3.21,8.86,5.09,13.19,1.63,3.74,2.82,7.66,4.4,12.05Zm-305.99-127.07c-.97.6-.78,1.6-1.12,2.34-3.07,6.56-5.09,13.53-7.8,20.22-.74,1.84-1.69,3.63-2.19,5.55-.51,1.96-1.56,3.74-2.06,5.59-1.32,4.89-3.36,9.52-5.07,14.24-2.43,6.68-5.03,13.32-7.56,19.98-1.41,3.72-2.92,7.4-4.31,11.13-1.25,3.34-2.36,6.72-3.59,10.07-1.55,4.23-3.17,8.43-4.75,12.65-1.14,3.04-2.26,6.09-3.4,9.13-1.58,4.22-3.17,8.43-4.76,12.64-.67,1.76-1.39,3.5-2.03,5.28-1.4,3.84-2.76,7.69-4.13,11.5,2.25,3.52,10.82,13.89,13.11,15.43.18-.12.38-.21.53-.35,10.72-10.33,20.89-21.21,31.86-31.31,12.04-11.08,23.04-23.22,35.03-34.38,10.68-9.94,20.72-20.57,31.05-30.89-19.58-19.58-39.12-39.12-58.81-58.81Zm245.57-1.2c-19.13,19.13-38.21,38.21-57.41,57.41,32.11,32.11,64.45,64.45,96.8,96.79.06.06.22.02.33.02.11,0,.23,0,.76,0,3.79-4.61,7.76-9.42,11.71-14.21-1.6-4.27-3.09-8.3-4.63-12.31-1.47-3.81-3.01-7.61-4.32-11.46-1.12-3.27-2.47-6.46-3.53-9.76-.8-2.49-1.85-4.89-2.71-7.37-.95-2.77-2-5.51-3.13-8.22-1.77-4.25-3.38-8.58-4.91-12.91-1.64-4.64-3.27-9.33-5.06-13.89-2.67-6.82-5.21-13.71-7.8-20.55-2.44-6.45-4.85-12.96-7.11-19.5-1.7-4.92-3.67-9.8-5.58-14.67-1.22-3.12-2.3-6.3-3.41-9.37Z"/>
  </g>
  <g id="Myrostar_HEALTH" data-name="MyrostarHEALTH">
    <text class="cls-1" transform="translate(106.71 584.23)"><tspan class="cls-2"><tspan x="0" y="0">Myrostar</tspan></tspan><tspan class="cls-3"><tspan x="134.13" y="85.15">HEALTH</tspan></tspan></text>
  </g>
</svg>